<?xml version="1.0" standalone="no"?>
<!DOCTYPE svg PUBLIC "-//W3C//DTD SVG 20010904//EN"
 "http://www.w3.org/TR/2001/REC-SVG-20010904/DTD/svg10.dtd">
<svg version="1.0" xmlns="http://www.w3.org/2000/svg"
 width="225.000000pt" height="51.000000pt" viewBox="0 0 225.000000 51.000000"
 preserveAspectRatio="xMidYMid meet">

<g transform="translate(0.000000,51.000000) scale(0.100000,-0.100000)"
fill="#000000" stroke="none">
<path d="M106 444 c-13 -13 -16 -45 -16 -194 0 -200 0 -200 71 -200 l32 0 -20
23 c-60 66 -22 119 100 141 l39 7 -46 29 c-63 40 -134 113 -142 146 -4 15 -2
35 5 46 14 22 -2 24 -23 2z"/>
<path d="M445 440 c32 -11 61 -18 63 -16 1 2 -4 11 -13 20 -11 10 -33 16 -63
15 l-47 0 60 -19z"/>
<path d="M221 411 c-23 -15 -1 -51 60 -98 58 -44 196 -123 217 -123 8 0 12 22
12 78 l0 77 -62 22 c-59 21 -181 53 -203 53 -5 0 -16 -4 -24 -9z"/>
<path d="M1392 145 c-15 -56 -15 -68 0 -63 6 2 17 24 24 49 17 55 17 59 1 59
-7 0 -18 -20 -25 -45z"/>
<path d="M1262 141 c-14 -46 -15 -61 -3 -61 5 0 16 21 25 47 19 56 19 53 3 53
-8 0 -19 -17 -25 -39z"/>
<path d="M732 144 c-7 -12 -11 -13 -17 -5 -5 9 -12 8 -26 -5 -17 -16 -19 -16
-19 -1 0 26 -19 20 -26 -9 -9 -34 10 -53 36 -37 14 10 20 10 24 0 3 -8 13 -2
30 15 24 27 25 27 28 5 2 -18 10 -22 41 -23 31 -1 42 4 55 24 l16 25 6 -23 c8
-33 74 -37 96 -6 7 11 23 21 34 21 21 0 28 20 7 20 -6 0 -17 4 -24 8 -7 4 -18
-2 -27 -15 -13 -18 -16 -19 -16 -5 0 22 -9 22 -26 0 -12 -16 -13 -16 -14 -2 0
27 -47 30 -65 5 -9 -12 -13 -16 -10 -9 9 20 -16 26 -30 7 -14 -18 -14 -18 -15
0 0 12 -5 16 -15 12 -8 -3 -15 -1 -15 4 0 16 -18 12 -28 -6z"/>
<path d="M1226 143 c-6 -15 -8 -15 -17 -3 -8 13 -13 11 -31 -10 -20 -24 -20
-24 -14 -2 6 16 3 22 -8 22 -12 0 -16 -10 -16 -35 0 -35 20 -49 35 -25 5 8 11
7 21 -1 11 -9 18 -6 34 12 20 25 27 59 11 59 -5 0 -12 -8 -15 -17z"/>
<path d="M1301 133 c-13 -29 -14 -53 -3 -53 5 0 14 11 20 25 6 14 16 25 22 25
7 0 8 -6 0 -19 -13 -26 -13 -31 5 -31 16 0 30 42 22 64 -9 23 -54 16 -66 -11z"/>
<path d="M1497 142 c-34 -38 -17 -73 27 -56 23 9 20 27 -3 21 -14 -3 -18 -1
-14 9 3 8 11 14 19 14 8 0 14 7 14 15 0 21 -23 19 -43 -3z"/>
<path d="M1572 144 c-31 -21 -30 -64 1 -64 33 0 64 36 51 57 -15 24 -26 25
-52 7z m23 -33 c-3 -6 -11 -11 -17 -11 -6 0 -6 6 2 15 14 17 26 13 15 -4z"/>
<path d="M1640 126 c-13 -39 -13 -46 5 -46 8 0 15 6 15 14 0 7 6 19 14 25 11
9 12 6 8 -14 -2 -15 0 -25 7 -25 6 0 11 4 11 8 0 5 7 17 16 28 15 18 15 18 9
-8 -7 -36 22 -39 31 -3 10 40 1 49 -54 49 -48 1 -52 -1 -62 -28z"/>
<path d="M248 138 c-36 -13 -35 -23 4 -59 31 -28 36 -29 130 -29 102 0 128 10
128 49 0 38 -189 66 -262 39z"/>
<path d="M1065 130 c-22 -24 -13 -50 17 -50 35 0 47 12 41 43 -6 32 -32 36
-58 7z"/>
<path d="M1437 143 c-12 -11 -8 -23 8 -23 8 0 15 7 15 15 0 16 -12 20 -23 8z"/>
</g>
</svg>
